<svg width="181" height="43" viewBox="0 0 181 43" fill="none" xmlns="http://www.w3.org/2000/svg">
<circle cx="28.0311" cy="14.0156" r="14.0156" fill="url(#paint0_linear_215_1966)"/>
<path fill-rule="evenodd" clip-rule="evenodd" d="M33.3259 9.34369H0V42.6696H33.3259V9.34369ZM16.8185 38.6208C23.699 38.6208 29.2768 33.0431 29.2768 26.1625C29.2768 19.282 23.699 13.7043 16.8185 13.7043C9.93796 13.7043 4.3602 19.282 4.3602 26.1625C4.3602 33.0431 9.93796 38.6208 16.8185 38.6208Z" fill="#101131"/>
<path fill-rule="evenodd" clip-rule="evenodd" d="M69.8501 9.27646H67.2479V9.2765H66.6697L56.8391 23.5887H60.1642L62.3327 20.4082H67.2479V23.5886H69.8501V9.27646ZM67.2479 17.6614V13.0278L64.2121 17.6614H67.2479ZM86.5305 21.7294C85.0732 22.964 83.0695 23.976 80.4789 23.976C76.0667 23.976 73.0308 20.8794 73.0308 16.6898V16.6493C73.0308 12.6217 76.1679 9.32264 80.4586 9.32264C83.0088 9.32264 84.547 10.0108 86.0245 11.2656L84.0613 13.6336C82.9683 12.7229 81.9968 12.1966 80.3575 12.1966C78.0906 12.1966 76.2893 14.2004 76.2893 16.6088V16.6493C76.2893 19.24 78.0704 21.1425 80.5801 21.1425C81.7135 21.1425 82.7255 20.8591 83.5148 20.2924V18.2685H80.3777V15.5766H86.5305V21.7294ZM100.317 23.7331H89.5296V9.56552H100.216V12.3383H92.6262V15.2123H99.3052V17.9851H92.6262V20.9603H100.317V23.7331ZM103.088 23.7331H106.165V14.7266L113.026 23.7331H115.677V9.56552H112.601V18.2887L105.962 9.56552H103.088V23.7331ZM131.526 21.4461C130.068 23.0045 128.449 23.976 125.717 23.976C121.548 23.976 118.451 20.7579 118.451 16.6898V16.6493C118.451 12.6217 121.487 9.32264 125.838 9.32264C128.51 9.32264 130.109 10.2132 131.424 11.5085L129.441 13.7956C128.348 12.8038 127.235 12.1966 125.818 12.1966C123.43 12.1966 121.71 14.1801 121.71 16.6088V16.6493C121.71 19.0781 123.389 21.102 125.818 21.102C127.437 21.102 128.429 20.4543 129.542 19.4424L131.526 21.4461ZM134.162 23.7331H137.279V9.56552H134.162V23.7331ZM151.608 23.7331H140.82V9.56552H151.506V12.3383H143.917V15.2123H150.596V17.9851H143.917V20.9603H151.608V23.7331ZM159.418 23.9355C162.475 23.9355 164.62 22.3569 164.62 19.5436V19.5031C164.62 17.0339 163.001 16.0017 160.127 15.2528C157.678 14.6254 157.071 14.3218 157.071 13.3908V13.3503C157.071 12.6622 157.698 12.1157 158.892 12.1157C160.086 12.1157 161.321 12.6419 162.576 13.5122L164.195 11.1644C162.758 10.0108 160.997 9.36312 158.933 9.36312C156.038 9.36312 153.974 11.0632 153.974 13.6336V13.6741C153.974 16.4874 155.816 17.2768 158.67 18.0054C161.038 18.6126 161.523 19.0173 161.523 19.8067V19.8472C161.523 20.677 160.754 21.183 159.479 21.183C157.86 21.183 156.524 20.5151 155.249 19.4626L153.407 21.6687C155.107 23.1867 157.273 23.9355 159.418 23.9355ZM76.7346 42.5269H73.6582V28.3593H76.5322L83.1707 37.0825V28.3593H86.2471V42.5269H83.5958L76.7346 33.5204V42.5269ZM93.6353 42.5269H96.7522V36.8801L102.197 28.3593H98.6547L95.214 34.0466L91.834 28.3593H88.1909L93.6353 36.9408V42.5269ZM110.197 42.6281H107.485L102.648 28.3593H105.987L108.922 37.9528L112.1 28.3188H114.771L117.949 37.9528L120.883 28.3593H124.142L119.305 42.6281H116.593L113.395 33.3584L110.197 42.6281ZM126.451 42.5269H129.568V36.8396H135.316V42.5269H138.433V28.3593H135.316V33.9656H129.568V28.3593H126.451V42.5269ZM152.616 42.5269H141.828V28.3593H152.514V31.1321H144.925V34.0061H151.604V36.7789H144.925V39.7541H152.616V42.5269ZM155.387 42.5269H158.504V37.9933H160.953L163.989 42.5269H167.632L164.171 37.4671C165.972 36.7992 167.207 35.3622 167.207 33.0751V33.0346C167.207 31.6988 166.782 30.5856 165.992 29.7963C165.061 28.8653 163.665 28.3593 161.863 28.3593H155.387V42.5269ZM158.504 35.2407V31.1726H161.6C163.118 31.1726 164.049 31.8607 164.049 33.1965V33.237C164.049 34.4311 163.179 35.2407 161.661 35.2407H158.504ZM180.801 42.5269H170.013V28.3593H180.699V31.1321H173.11V34.0061H179.789V36.7789H173.11V39.7541H180.801V42.5269ZM67.2479 28.3593H69.8501V42.6715H67.2479V39.491H62.3327L60.1642 42.6715H56.8391L66.6697 28.3593H67.2479V28.3593ZM67.2479 32.1106V36.7443H64.2121L67.2479 32.1106ZM175.275 20.8187C175.275 22.5622 173.869 23.976 171.996 23.976C170.122 23.976 168.734 22.5795 168.734 20.836V20.8187C168.734 19.0752 170.14 17.6613 172.013 17.6613C173.887 17.6613 175.275 19.0578 175.275 20.8013V20.8187ZM170.452 20.8187C170.452 21.6948 171.085 22.4581 172.013 22.4581C172.933 22.4581 173.548 21.7121 173.548 20.836V20.8187C173.548 19.9339 172.924 19.1793 171.996 19.1793C171.068 19.1793 170.452 19.9252 170.452 20.8013V20.8187ZM177.825 23.8546H176.142V17.7828H181V19.2573H177.825V20.2896H180.696V21.6861H177.825V23.8546Z" fill="#101131"/>
<defs>
<linearGradient id="paint0_linear_215_1966" x1="42.0467" y1="22.3325" x2="38.1663" y2="2.14054" gradientUnits="userSpaceOnUse">
<stop stop-color="#4D69FF"/>
<stop offset="0.428625" stop-color="#DD44EE"/>
<stop offset="0.988043" stop-color="#E75233"/>
</linearGradient>
</defs>
</svg>
