<svg width="12" height="12" viewBox="0 0 12 12" fill="none" xmlns="http://www.w3.org/2000/svg">
<path fill-rule="evenodd" clip-rule="evenodd" d="M5.96189 11.6952C2.97429 11.6952 0.552368 9.27331 0.552368 6.28571C0.552368 3.29812 2.97429 0.87619 5.96189 0.87619C8.94949 0.87619 11.3714 3.29812 11.3714 6.28571C11.3714 9.27331 8.94949 11.6952 5.96189 11.6952ZM5.25334 7.70989L3.85889 6.15841C3.69631 5.97752 3.42011 5.95676 3.23232 6.11132C3.22879 6.11423 3.2253 6.1172 3.22186 6.12022C3.04726 6.27375 3.03017 6.53975 3.1837 6.71435L4.93257 8.7033C4.94242 8.71451 4.95288 8.72516 4.9639 8.73522C5.11079 8.86936 5.32901 8.87615 5.48291 8.76174C5.5511 8.73025 5.6133 8.68349 5.66406 8.62233L8.82076 4.81829C8.97483 4.63263 8.95133 4.35768 8.768 4.20085C8.767 4.2 8.766 4.19916 8.765 4.19831C8.58271 4.04524 8.31085 4.06892 8.15777 4.2512L5.25334 7.70989Z" fill="#101131"/>
</svg>
