<svg width="500" height="500" viewBox="0 0 500 500" fill="none" xmlns="http://www.w3.org/2000/svg">
<rect width="500" height="500" fill="#D9D9D9"/>
<path d="M249.5 333C295.063 333 332 296.063 332 250.5C332 204.937 295.063 168 249.5 168C203.937 168 167 204.937 167 250.5C167 296.063 203.937 333 249.5 333Z" stroke="#C6C6C6" stroke-width="5"/>
<path d="M326.407 279.725C304.697 305.623 266.123 309.001 240.25 287.27C214.376 265.539 211.001 226.928 232.712 201.03" stroke="#C6C6C6" stroke-width="5" stroke-linecap="round"/>
<path d="M172.667 221.187C194.378 195.289 232.952 191.911 258.825 213.642C284.698 235.373 288.073 273.984 266.363 299.882" stroke="#C6C6C6" stroke-width="5" stroke-linecap="round"/>
<path d="M249.677 264.749C257.449 264.749 263.749 258.449 263.749 250.677C263.749 242.905 257.449 236.604 249.677 236.604C241.905 236.604 235.604 242.905 235.604 250.677C235.604 258.449 241.905 264.749 249.677 264.749Z" fill="#C6C6C6"/>
</svg>
